<svg xmlns="http://www.w3.org/2000/svg" width="15" height="15" viewBox="0 0 16 13.292">
  <g id="Beneficiary_Details_icon" data-name="Beneficiary Details icon" transform="translate(-1 -3.98)">
    <path id="Path_872" data-name="Path 872" d="M12.409,26.591V25.227A2.727,2.727,0,0,0,9.682,22.5H4.227A2.727,2.727,0,0,0,1.5,25.227v1.364" transform="translate(0 -9.818)" fill="none" stroke="#000" stroke-linecap="round" stroke-linejoin="round" stroke-width="1"/>
    <path id="Path_873" data-name="Path 873" d="M12.955,7.227A2.727,2.727,0,1,1,10.227,4.5,2.727,2.727,0,0,1,12.955,7.227Z" transform="translate(-3.273)" fill="none" stroke="#000" stroke-linecap="round" stroke-linejoin="round" stroke-width="1"/>
    <path id="Path_874" data-name="Path 874" d="M32.045,26.7V25.334A2.727,2.727,0,0,0,30,22.7" transform="translate(-15.545 -9.925)" fill="none" stroke="#000" stroke-linecap="round" stroke-linejoin="round" stroke-width="1"/>
    <path id="Path_875" data-name="Path 875" d="M24,4.7a2.727,2.727,0,0,1,0,5.284" transform="translate(-12.273 -0.106)" fill="none" stroke="#000" stroke-linecap="round" stroke-linejoin="round" stroke-width="1"/>
  </g>
</svg>
