<svg xmlns="http://www.w3.org/2000/svg" width="22" height="22.005" viewBox="0 0 22 22.005">
  <g id="calender_icon_form_page" data-name="calender icon form page" transform="translate(0)" opacity="0.8">
    <path id="Path_29" data-name="Path 29" d="M29.362,179a1.031,1.031,0,0,1,1.031,1.031v.693h3.576v-.693a1.031,1.031,0,1,1,2.063,0v.693h3.438v-.693a1.031,1.031,0,1,1,2.063,0v.693h.687A3.781,3.781,0,0,1,46,184.505v4.254a1.031,1.031,0,1,1-2.062,0v-4.254a1.719,1.719,0,0,0-1.719-1.719h-.687v.683a1.031,1.031,0,1,1-2.062,0v-.683H36.031v.683a1.031,1.031,0,1,1-2.062,0v-.683H30.393v.683a1.031,1.031,0,1,1-2.062,0v-.683h-.549a1.719,1.719,0,0,0-1.719,1.719v12.719a1.719,1.719,0,0,0,1.719,1.719h5.973a1.031,1.031,0,0,1,0,2.063H27.781A3.781,3.781,0,0,1,24,197.224V184.505a3.781,3.781,0,0,1,3.781-3.781h.549v-.693A1.031,1.031,0,0,1,29.362,179Zm.991,9.012a.962.962,0,1,1-.962-.963A.962.962,0,0,1,30.353,188.012Zm2.75.962a.962.962,0,1,0-.962-.962A.962.962,0,0,0,33.1,188.974Zm-2.75,2.791a.962.962,0,1,1-.962-.962A.962.962,0,0,1,30.353,191.766Zm2.75.962a.962.962,0,1,0-.962-.962A.962.962,0,0,0,33.1,192.728Zm-2.75,2.764a.962.962,0,1,1-.962-.962A.962.962,0,0,1,30.353,195.492Zm2.75.962a.962.962,0,1,0-.962-.962A.962.962,0,0,0,33.1,196.454Zm4.716-8.442a.962.962,0,1,1-.963-.963A.962.962,0,0,1,37.819,188.012Zm2.75.962a.962.962,0,1,0-.963-.962A.962.962,0,0,0,40.569,188.974Z" transform="translate(-24 -179)" fill="#2455cf" fill-rule="evenodd"/>
    <path id="Path_30" data-name="Path 30" d="M40.938,192.5a3.438,3.438,0,1,1-3.438-3.438A3.437,3.437,0,0,1,40.938,192.5Zm2.062,0a5.5,5.5,0,1,1-5.5-5.5A5.5,5.5,0,0,1,43,192.5Zm-5.225-1.375a.688.688,0,0,0-1.375,0v2.063a.688.688,0,0,0,.688.688h1.65a.688.688,0,0,0,0-1.375h-.962Z" transform="translate(-21 -175.999)" fill="#2455cf" fill-rule="evenodd"/>
  </g>
</svg>
