<svg xmlns="http://www.w3.org/2000/svg" width="185.923" height="38" viewBox="0 0 185.923 38">
  <g id="casmex_logo" data-name="casmex logo" transform="translate(-28.93 -28.934)">
    <path id="Path_15" data-name="Path 15" d="M245.777,46.753q0-6.516,3.134-9.615t9.2-3.1a20.671,20.671,0,0,1,5.158.611V38.54a19.2,19.2,0,0,0-4.57-.588,10.213,10.213,0,0,0-4.536.871,5.561,5.561,0,0,0-2.624,2.783,12.331,12.331,0,0,0-.871,5.057q0,4.751,1.8,6.821t5.486,2.07a17.794,17.794,0,0,0,5.317-.95v3.891a18.192,18.192,0,0,1-6.041,1q-11.448,0-11.448-12.737" transform="translate(-170.761 1.429)" fill="#2455cf"/>
    <path id="Path_16" data-name="Path 16" d="M359.045,34.921a6.232,6.232,0,0,1,3.269,2.919,11.8,11.8,0,0,1,1.086,5.52V59.038h-3.914l-.339-2.67h-.272a7.44,7.44,0,0,1-2.964,2.285,9.771,9.771,0,0,1-3.959.792,9.248,9.248,0,0,1-4.061-.826,5.994,5.994,0,0,1-2.624-2.376,7,7,0,0,1-.916-3.631,6.316,6.316,0,0,1,2.24-5.181q2.24-1.832,7.081-2.24l5.113-.52V43.111a6.642,6.642,0,0,0-.645-3.213,3.583,3.583,0,0,0-1.968-1.64,10.354,10.354,0,0,0-3.5-.486,22.4,22.4,0,0,0-3.269.26,19.941,19.941,0,0,0-3.382.8v-3.71a20.9,20.9,0,0,1,3.575-.8,27.061,27.061,0,0,1,3.8-.283,15.257,15.257,0,0,1,5.645.882m-2.794,20.441a6.946,6.946,0,0,0,2.534-1.934V47.613l-4.728.475a7.085,7.085,0,0,0-3.812,1.267,3.459,3.459,0,0,0-1.188,2.806,3.648,3.648,0,0,0,1.075,2.851,4.593,4.593,0,0,0,3.179.973,7.278,7.278,0,0,0,2.941-.622" transform="translate(-250.851 1.428)" fill="#2455cf"/>
    <path id="Path_17" data-name="Path 17" d="M462.266,58.473V54.808a24.423,24.423,0,0,0,7.081,1.063,7.6,7.6,0,0,0,4.242-.928,3.066,3.066,0,0,0,1.346-2.692,2.989,2.989,0,0,0-.758-2.206A5.134,5.134,0,0,0,471.61,48.9l-3.529-.7a8.529,8.529,0,0,1-4.83-2.33,6.449,6.449,0,0,1-1.5-4.48,6.691,6.691,0,0,1,1.131-3.857,7.23,7.23,0,0,1,3.439-2.579,15.589,15.589,0,0,1,5.724-.916,23.333,23.333,0,0,1,6.018.746v3.665a22.127,22.127,0,0,0-5.9-.792,8.152,8.152,0,0,0-4.57.984,3.066,3.066,0,0,0-1.4,2.636,2.967,2.967,0,0,0,.735,2.1,4.744,4.744,0,0,0,2.5,1.176l3.529.679a9.235,9.235,0,0,1,4.909,2.319,6.254,6.254,0,0,1,1.538,4.491,6.842,6.842,0,0,1-1.154,3.982,7.227,7.227,0,0,1-3.405,2.568,14.764,14.764,0,0,1-5.441.893,23.792,23.792,0,0,1-7.127-1.018" transform="translate(-346.234 1.428)" fill="#2455cf"/>
    <path id="Path_18" data-name="Path 18" d="M601.564,36.2q2.047,2.161,2.047,6.844v16h-4.706V43.27a5.626,5.626,0,0,0-1.109-3.9,4.032,4.032,0,0,0-3.1-1.188,6.789,6.789,0,0,0-2.84.645,6.218,6.218,0,0,0-2.432,2.025,19.479,19.479,0,0,1,.113,2.059V59.039h-4.615V43.27a5.787,5.787,0,0,0-1.063-3.914,3.878,3.878,0,0,0-3.032-1.176,6.55,6.55,0,0,0-2.975.735,6.4,6.4,0,0,0-2.455,2.229v17.9h-4.706V34.424h3.937l.339,2.715h.249a9.383,9.383,0,0,1,3.179-2.308,9.522,9.522,0,0,1,3.88-.792,7.868,7.868,0,0,1,3.688.826,5.8,5.8,0,0,1,2.489,2.59,10.018,10.018,0,0,1,7.534-3.416,7.318,7.318,0,0,1,5.577,2.161" transform="translate(-434.753 1.428)" fill="#2455cf"/>
    <path id="Path_19" data-name="Path 19" d="M782.9,48.2H767.425a10.225,10.225,0,0,0,.962,4.412,5.176,5.176,0,0,0,2.591,2.4,11.431,11.431,0,0,0,4.5.747,24.732,24.732,0,0,0,6.176-.928v3.71a26.357,26.357,0,0,1-6.764.95q-6.222,0-9.231-3.054t-3.009-9.728q0-6.244,2.726-9.457a9.524,9.524,0,0,1,7.681-3.213,8.763,8.763,0,0,1,7.319,3.2q2.522,3.2,2.523,9.6Zm-13.993-9.084q-1.414,1.844-1.5,6.1h11.063q-.091-4.253-1.437-6.1a4.652,4.652,0,0,0-4.016-1.844,4.859,4.859,0,0,0-4.106,1.844" transform="translate(-590.716 1.428)" fill="#2455cf"/>
    <path id="Path_20" data-name="Path 20" d="M881.57,48.24l8.891,12.466H885.19l-6.448-9.072-6.425,9.072h-5.181l8.846-12.4L867.317,36.09h5.271l6.267,8.8,6.222-8.8h5.136Z" transform="translate(-675.608 -0.238)" fill="#2455cf"/>
    <rect id="Rectangle_8" data-name="Rectangle 8" width="38" height="38" transform="translate(28.93 28.934)" fill="#2455cf"/>
    <path id="Path_21" data-name="Path 21" d="M36.795,47.273V34.618l10.993,6.327Zm11.377-5.56V54.431L37.178,48.04Zm0-14.189V40.179L37.239,33.851Zm.959,0,10.929,6.327L49.13,40.179Zm0,14.189L60.059,48.04,49.13,54.431Z" transform="translate(-0.966 6.722)" fill="#fff"/>
  </g>
</svg>
