<svg id="Dashboard_Icon" data-name="Dashboard Icon" xmlns="http://www.w3.org/2000/svg" width="15" height="15" viewBox="0 0 15 15">
  <g id="Group_583" data-name="Group 583">
    <path id="Path_820" data-name="Path 820" d="M284.1,7.822a.184.184,0,0,0-.021.038,1.1,1.1,0,0,1-1.157.892h-4.262c-.1,0-.2,0-.293,0a1.1,1.1,0,0,1-1.144-1.145c0-.474,0-.947,0-1.421V1.324A1.145,1.145,0,0,1,278.149,0h5.039a1.125,1.125,0,0,1,.655.4,4.057,4.057,0,0,1,.253.533Zm-.937-3.446q0-1.6,0-3.192c0-.208-.038-.246-.248-.247H278.4c-.2,0-.245.043-.245.252q0,3.184,0,6.369c0,.213.043.256.258.256h4.495c.206,0,.25-.043.25-.247q0-1.6,0-3.192" transform="translate(-269.096)"/>
    <path id="Path_821" data-name="Path 821" d="M0,214.09c.022-.069.042-.14.066-.208a1.079,1.079,0,0,1,1.024-.719q2.343-.011,4.686,0a1.089,1.089,0,0,1,1.1,1.157q0,1.867,0,3.735v2.519a1.15,1.15,0,0,1-.93,1.339H.938a1.145,1.145,0,0,1-.8-.574A3.4,3.4,0,0,1,0,221V214.09m.938,3.444q0,1.589,0,3.177c0,.23.033.263.261.263h4.48c.223,0,.261-.038.262-.265q0-3.17,0-6.34c0-.234-.038-.273-.271-.273H1.2c-.232,0-.266.036-.266.274q0,1.581,0,3.162" transform="translate(0 -206.912)"/>
    <path id="Path_822" data-name="Path 822" d="M5.947,0a3.213,3.213,0,0,1,.542.271,1.012,1.012,0,0,1,.388.848c0,.923.007,1.845,0,2.768A1.084,1.084,0,0,1,5.762,5Q3.441,5.011,1.12,5A1.087,1.087,0,0,1,.027,4.14.564.564,0,0,0,0,4.072V.908C.018.859.037.81.054.76A1.06,1.06,0,0,1,.626.11C.717.067.814.036.908,0ZM3.436,4.065H5.69c.2,0,.249-.045.25-.25q0-1.317,0-2.635c0-.2-.045-.242-.239-.242H1.177c-.2,0-.24.043-.24.24q0,1.317,0,2.635c0,.212.041.252.259.253h2.24"/>
    <path id="Path_823" data-name="Path 823" d="M278.025,346.212a2.8,2.8,0,0,1-.313-.116,1.046,1.046,0,0,1-.613-.974c-.01-.942-.013-1.884,0-2.826a1.081,1.081,0,0,1,1.126-1.085c1.123-.005,2.246,0,3.368,0h1.2a1.1,1.1,0,0,1,1.157.892.183.183,0,0,0,.021.038v3.135a3.673,3.673,0,0,1-.234.508,1.1,1.1,0,0,1-.7.429Zm2.507-.937h2.254c.209,0,.248-.039.248-.246q0-1.317,0-2.635c0-.2-.043-.246-.25-.246h-4.494c-.215,0-.258.043-.258.256q0,1.31,0,2.62c0,.212.042.251.26.251h2.24" transform="translate(-268.973 -331.212)"/>
  </g>
</svg>
