<svg id="Forex_icon" data-name="Forex icon" xmlns="http://www.w3.org/2000/svg" xmlns:xlink="http://www.w3.org/1999/xlink" width="15" height="15" viewBox="0 0 16 15.998">
  <defs>
    <clipPath id="clip-path">
      <rect id="Rectangle_603" data-name="Rectangle 603" width="16" height="15.998"/>
    </clipPath>
  </defs>
  <g id="Group_586" data-name="Group 586" clip-path="url(#clip-path)">
    <path id="Path_828" data-name="Path 828" d="M5.537,9.851A4.62,4.62,0,0,1,1.39,8.573,4.494,4.494,0,0,1,0,5.265a4.674,4.674,0,1,1,9.285.765A5.265,5.265,0,0,1,14.428,7.4,5.071,5.071,0,0,1,16,11.382,5.313,5.313,0,1,1,5.537,9.851m.722,1.317a4.439,4.439,0,1,0,4.432-4.449,4.434,4.434,0,0,0-4.432,4.449M.853,5.253A3.81,3.81,0,0,0,5.712,8.914a.454.454,0,0,0,.3-.247A5.186,5.186,0,0,1,8.129,6.52a.377.377,0,0,0,.2-.254A3.807,3.807,0,1,0,.853,5.253" transform="translate(0 -0.558)"/>
    <path id="Path_829" data-name="Path 829" d="M20.493,254.205c.055.245.106.459.15.675a.426.426,0,0,1-.315.524.421.421,0,0,1-.521-.324c-.14-.595-.275-1.19-.4-1.788a.426.426,0,0,1,.4-.554q.887-.079,1.774-.153a.433.433,0,0,1,.519.373.439.439,0,0,1-.424.482c-.1.014-.2.017-.3.027s-.2.022-.34.038c.069.059.118.1.17.145l2.467,1.955c.033.026.067.051.1.079a.43.43,0,1,1-.543.667c-.309-.237-.612-.483-.918-.724L20.631,254.3c-.036-.028-.075-.052-.137-.095" transform="translate(-18.462 -240.456)"/>
    <path id="Path_830" data-name="Path 830" d="M193.418,2.242c-.045-.258-.086-.475-.12-.694a.43.43,0,0,1,.33-.5.421.421,0,0,1,.509.342q.176.9.333,1.8a.422.422,0,0,1-.407.537c-.262.025-.527.029-.791.042-.342.016-.683.035-1.025.045a.436.436,0,0,1-.484-.421.442.442,0,0,1,.466-.442c.2-.01.393-.021.637-.035-.078-.065-.124-.105-.172-.144q-1.241-.984-2.482-1.968a.451.451,0,0,1-.205-.465.41.41,0,0,1,.321-.329.48.48,0,0,1,.431.127q1.226.973,2.455,1.944l.2.159" transform="translate(-180.876 0)"/>
    <path id="Path_831" data-name="Path 831" d="M194.181,160.725a.529.529,0,0,1,.418-.536.585.585,0,0,1,.528.158.422.422,0,0,0,.611-.042.417.417,0,0,0-.053-.609,1.44,1.44,0,0,0-.371-.247.23.23,0,0,1-.163-.253.433.433,0,0,0-.438-.485.427.427,0,0,0-.419.481.232.232,0,0,1-.161.254,1.4,1.4,0,0,0,.265,2.637c.133.031.273.031.409.054a.537.537,0,0,1,.458.541.545.545,0,0,1-.487.537.606.606,0,0,1-.46-.166.426.426,0,1,0-.555.646,1.535,1.535,0,0,0,.419.271c.144.057.2.117.2.278a.409.409,0,0,0,.374.431.415.415,0,0,0,.479-.451.333.333,0,0,1,.2-.346,1.389,1.389,0,0,0,0-2.406,2.286,2.286,0,0,0-.75-.21.551.551,0,0,1-.5-.537" transform="translate(-184.026 -151.091)"/>
    <path id="Path_832" data-name="Path 832" d="M49.394,53.65c.362,0,.709.007,1.057,0a.409.409,0,0,0,.4-.39.417.417,0,0,0-.331-.45,1.4,1.4,0,0,0-.286-.018c-.278,0-.556,0-.856,0a1.265,1.265,0,0,1,.861-.905,1.066,1.066,0,0,1,.921.175.428.428,0,0,0,.684-.245.445.445,0,0,0-.214-.475,1.965,1.965,0,0,0-2.944.875c-.083.183-.139.378-.206.567-.376.029-.552.164-.559.429s.15.4.564.459a.105.105,0,0,1,.02.028c.015.052.026.1.041.156a2.132,2.132,0,0,0,1.134,1.414,1.855,1.855,0,0,0,1.987-.187.418.418,0,0,0,.119-.588.427.427,0,0,0-.6-.122c-.041.024-.081.052-.122.076a1.134,1.134,0,0,1-1.666-.8" transform="translate(-45.617 -48.532)"/>
    <path id="Path_833" data-name="Path 833" d="M194.181,160.725a.551.551,0,0,0,.5.537,2.287,2.287,0,0,1,.75.21,1.389,1.389,0,0,1,0,2.406.333.333,0,0,0-.2.346.415.415,0,0,1-.479.451.409.409,0,0,1-.374-.431c.005-.161-.052-.221-.2-.278a1.535,1.535,0,0,1-.419-.271.426.426,0,1,1,.555-.646.606.606,0,0,0,.459.166.545.545,0,0,0,.487-.537.537.537,0,0,0-.458-.541c-.136-.023-.276-.022-.409-.054a1.4,1.4,0,0,1-.265-2.637.232.232,0,0,0,.161-.254.427.427,0,0,1,.419-.481.433.433,0,0,1,.438.485.23.23,0,0,0,.163.253,1.441,1.441,0,0,1,.371.247.417.417,0,0,1,.053.609.422.422,0,0,1-.611.042.585.585,0,0,0-.528-.158.529.529,0,0,0-.418.536" transform="translate(-184.026 -151.091)"/>
    <path id="Path_834" data-name="Path 834" d="M49.394,53.65a1.134,1.134,0,0,0,1.666.8c.041-.024.081-.052.122-.076a.427.427,0,0,1,.6.122.418.418,0,0,1-.119.588,1.855,1.855,0,0,1-1.987.187,2.132,2.132,0,0,1-1.134-1.414c-.015-.052-.027-.1-.041-.156a.1.1,0,0,0-.02-.028c-.414-.058-.571-.187-.564-.459s.183-.4.559-.429c.068-.188.124-.384.206-.567a1.965,1.965,0,0,1,2.944-.875.445.445,0,0,1,.214.475.428.428,0,0,1-.684.245,1.066,1.066,0,0,0-.921-.175,1.265,1.265,0,0,0-.861.905c.3,0,.578,0,.856,0a1.4,1.4,0,0,1,.286.018.417.417,0,0,1,.331.45.409.409,0,0,1-.4.39c-.347.01-.695,0-1.057,0" transform="translate(-45.617 -48.532)"/>
  </g>
</svg>
