<svg xmlns="http://www.w3.org/2000/svg" xmlns:xlink="http://www.w3.org/1999/xlink" width="15" height="15" viewBox="0 0 15 15">
  <defs>
    <clipPath id="clip-path">
      <rect id="Rectangle_606" data-name="Rectangle 606" width="15" height="15" fill="none"/>
    </clipPath>
  </defs>
  <g id="Help_Center_icon" data-name="Help Center icon" transform="translate(0.4)">
    <g id="Group_592" data-name="Group 592" transform="translate(-0.4)" clip-path="url(#clip-path)">
      <path id="Path_855" data-name="Path 855" d="M0,7.792V6.875c.008-.041.018-.083.025-.124.05-.335.082-.673.15-1A7.334,7.334,0,0,1,6.056.113C6.328.069,6.6.038,6.875,0h.917c.037.008.073.017.11.024A11.033,11.033,0,0,1,9.278.268a7.215,7.215,0,0,1,5.275,5.8c.055.265.076.537.113.805v.917a.846.846,0,0,0-.024.111,7.166,7.166,0,0,1-1.775,4.238A7.183,7.183,0,0,1,8.6,14.556c-.266.047-.537.075-.8.111H6.875a.606.606,0,0,0-.1-.023A7.073,7.073,0,0,1,3.3,13.456,7.224,7.224,0,0,1,.114,8.611C.064,8.34.037,8.065,0,7.792m1.026-.47a6.307,6.307,0,1,0,6.322-6.3,6.31,6.31,0,0,0-6.322,6.3" transform="translate(0.333)"/>
      <path id="Path_856" data-name="Path 856" d="M141.607,95.64a2.749,2.749,0,0,1,1.206.237,1.487,1.487,0,0,1,.708,2.147,3.092,3.092,0,0,1-.814.931c-.082.066-.163.133-.24.2a1.046,1.046,0,0,0-.351.772c0,.091,0,.181,0,.272a.344.344,0,0,1-.259.352.651.651,0,0,1-.111.028c-.532.086-.716-.067-.728-.6a1.8,1.8,0,0,1,.723-1.557,3.133,3.133,0,0,0,.449-.376,1.464,1.464,0,0,0,.3-.475.578.578,0,0,0-.36-.743,1.091,1.091,0,0,0-1.371.391.508.508,0,0,1-.835.084.562.562,0,0,1-.107-.589,1.429,1.429,0,0,1,.873-.887,2.346,2.346,0,0,1,.924-.185" transform="translate(-134.101 -91.987)"/>
      <path id="Path_857" data-name="Path 857" d="M168.654,243.721a.735.735,0,1,1-1.471.017.735.735,0,1,1,1.471-.017" transform="translate(-160.464 -233.704)"/>
    </g>
  </g>
</svg>
