<svg id="Rate_Setup_icon_" data-name="Rate Setup icon " xmlns="http://www.w3.org/2000/svg" xmlns:xlink="http://www.w3.org/1999/xlink" width="15" height="15" viewBox="0 0 15 15">
  <defs>
    <clipPath id="clip-path">
      <rect id="Rectangle_602" data-name="Rectangle 602" width="15" height="15"/>
    </clipPath>
  </defs>
  <g id="Group_584" data-name="Group 584" clip-path="url(#clip-path)">
    <path id="Path_824" data-name="Path 824" d="M7.969,15H7.031c-.033-.008-.065-.019-.1-.023-.342-.05-.688-.083-1.026-.151a7.5,7.5,0,0,1-5.79-6C.071,8.538.039,8.253,0,7.969V7.031c.048-.332.084-.666.145-1A7.5,7.5,0,0,1,6.193.115C6.471.07,6.752.038,7.031,0h.938c.038.008.075.018.113.024.385.06.775.1,1.154.182a7.486,7.486,0,0,1,5.65,6c.046.273.076.549.114.824v.938c-.008.038-.019.075-.025.113-.051.347-.083.7-.154,1.041a7.5,7.5,0,0,1-6.015,5.762c-.278.045-.559.077-.838.116m-.475-.938A6.562,6.562,0,1,0,.938,7.487a6.573,6.573,0,0,0,6.556,6.576"/>
    <path id="Path_825" data-name="Path 825" d="M139.555,72.993c0-.166,0-.332,0-.5a.469.469,0,1,1,.936,0c0,.161,0,.322,0,.5l.148.047A2.121,2.121,0,0,1,142.132,75a.47.47,0,1,1-.937.023,1.172,1.172,0,1,0-1.157,1.2,2.044,2.044,0,0,1,1.884,1.2,2.1,2.1,0,0,1-1.283,2.926l-.147.044c0,.168,0,.333,0,.5a.469.469,0,1,1-.936,0c0-.166,0-.331,0-.5a2.135,2.135,0,0,1-1.126-.683,2.068,2.068,0,0,1-.512-1.323.47.47,0,1,1,.936-.022,1.171,1.171,0,1,0,1.157-1.2A2.043,2.043,0,0,1,138.1,75.9a2.1,2.1,0,0,1,1.356-2.868c.032-.009.064-.022.1-.037" transform="translate(-132.524 -69.196)"/>
  </g>
</svg>
