<svg xmlns="http://www.w3.org/2000/svg" width="41" height="41" viewBox="0 0 41 41">
  <g id="Group_2248" data-name="Group 2248" transform="translate(-341 -138)">
    <circle id="Ellipse_130" data-name="Ellipse 130" cx="20.5" cy="20.5" r="20.5" transform="translate(341 138)" fill="#4759e4"/>
    <path id="_52_Note_Basic_Description" data-name="52  Note, Basic, Description" d="M17.054,9.537H9.52a.753.753,0,0,1-.753-.753V5.016a.753.753,0,0,1,.753-.753h.851a3.014,3.014,0,0,1,5.831,0h.851a.753.753,0,0,1,.753.753V8.783A.753.753,0,0,1,17.054,9.537ZM10.274,8.03H16.3V5.77h-.753a.753.753,0,0,1-.753-.753,1.507,1.507,0,0,0-3.014,0,.753.753,0,0,1-.753.753h-.753Zm11.3,12.808V7.277a2.26,2.26,0,0,0-2.26-2.26h-.753V6.523h.753a.753.753,0,0,1,.753.753V20.837a.753.753,0,0,1-.753.753H7.26a.753.753,0,0,1-.753-.753V7.277a.753.753,0,0,1,.753-.753h.753V5.016H7.26A2.26,2.26,0,0,0,5,7.277V20.837A2.26,2.26,0,0,0,7.26,23.1H19.314A2.26,2.26,0,0,0,21.574,20.837ZM17.808,11.8H8.767V13.3h9.041Zm0,3.014H8.767v1.507h9.041Zm0,3.014H8.767v1.507h9.041Z" transform="translate(348.213 145.945)" fill="#fff"/>
  </g>
</svg>
