<svg id="Accounts_icon" data-name="Accounts icon" xmlns="http://www.w3.org/2000/svg" xmlns:xlink="http://www.w3.org/1999/xlink" width="15" height="15" viewBox="0 0 15 17.526">
  <defs>
    <clipPath id="clip-path">
      <rect id="Rectangle_744" data-name="Rectangle 744" width="15" height="17.526" fill="none"/>
    </clipPath>
  </defs>
  <g id="Group_660" data-name="Group 660" clip-path="url(#clip-path)">
    <path id="Path_876" data-name="Path 876" d="M12.565,0a5.469,5.469,0,0,1,.78.233A2.627,2.627,0,0,1,14.99,2.74c.018,2.858.006,5.716.005,8.574a.686.686,0,1,1-1.369-.008q0-2.114,0-4.227V6.86H1.37v.174q0,3.833,0,7.667a1.373,1.373,0,0,0,1.46,1.455h9.345a1.37,1.37,0,0,0,1.451-1.378A.685.685,0,1,1,15,14.8a2.752,2.752,0,0,1-2.3,2.689,1.157,1.157,0,0,0-.128.034H2.432a.575.575,0,0,0-.094-.031A2.729,2.729,0,0,1,0,14.82Q0,8.763,0,2.706A2.734,2.734,0,0,1,2.085.078C2.2.05,2.316.026,2.432,0ZM1.375,5.465H13.626c0-.9,0-1.791,0-2.68A1.367,1.367,0,0,0,12.212,1.37c-.753,0-1.506,0-2.259,0q-3.585,0-7.17,0a1.367,1.367,0,0,0-1.4,1.178.424.424,0,0,0-.009.068c0,.946,0,1.892,0,2.85" transform="translate(0)"/>
    <path id="Path_877" data-name="Path 877" d="M239.919,183.294c0,.861,0,1.722,0,2.582a.683.683,0,0,1-1.354.135.749.749,0,0,1-.013-.153q0-2.582,0-5.165a.678.678,0,0,1,.532-.685.662.662,0,0,1,.749.343.912.912,0,0,1,.084.377c.007.855,0,1.71,0,2.565" transform="translate(-227.661 -171.775)"/>
    <path id="Path_878" data-name="Path 878" d="M60.719,181.375a.684.684,0,0,1,.028-1.368.685.685,0,1,1-.028,1.368" transform="translate(-57.309 -171.791)"/>
    <path id="Path_879" data-name="Path 879" d="M61.454,237.687a.716.716,0,0,1-.709.69.684.684,0,1,1-.012-1.368.717.717,0,0,1,.721.678" transform="translate(-57.311 -226.191)"/>
    <path id="Path_880" data-name="Path 880" d="M61.454,294.7a.717.717,0,0,1-.72.679.684.684,0,1,1,.01-1.368.716.716,0,0,1,.711.689" transform="translate(-57.311 -280.589)"/>
    <path id="Path_881" data-name="Path 881" d="M121.424,180.69a.684.684,0,1,1-.687-.681.686.686,0,0,1,.687.681" transform="translate(-114.576 -171.793)"/>
    <path id="Path_882" data-name="Path 882" d="M180.678,180.7a.684.684,0,1,1-.679-.69.686.686,0,0,1,.679.69" transform="translate(-171.126 -171.793)"/>
    <path id="Path_883" data-name="Path 883" d="M121.424,237.685a.684.684,0,1,1-.692-.677.686.686,0,0,1,.692.677" transform="translate(-114.576 -226.191)"/>
    <path id="Path_884" data-name="Path 884" d="M180.678,237.692a.684.684,0,1,1-.686-.683.686.686,0,0,1,.686.683" transform="translate(-171.126 -226.192)"/>
    <path id="Path_885" data-name="Path 885" d="M120.732,295.377a.684.684,0,1,1,.692-.677.686.686,0,0,1-.692.677" transform="translate(-114.576 -280.589)"/>
    <path id="Path_886" data-name="Path 886" d="M180.678,294.689a.684.684,0,1,1-.688-.68.686.686,0,0,1,.688.68" transform="translate(-171.126 -280.59)"/>
    <path id="Path_887" data-name="Path 887" d="M61.952,59.988c.382,0,.764,0,1.145,0a.685.685,0,1,1,0,1.368q-1.162,0-2.325,0a.685.685,0,1,1,0-1.368c.393,0,.786,0,1.179,0" transform="translate(-57.311 -57.25)"/>
  </g>
</svg>
