<svg id="Application_Settings_Icon" data-name="Application Settings Icon" xmlns="http://www.w3.org/2000/svg" xmlns:xlink="http://www.w3.org/1999/xlink" width="15" height="14.171" viewBox="0 0 15 14.171">
  <defs>
    <clipPath id="clip-path">
      <rect id="Rectangle_604" data-name="Rectangle 604" width="15" height="14.171"/>
    </clipPath>
  </defs>
  <g id="Group_588" data-name="Group 588" clip-path="url(#clip-path)">
    <path id="Path_835" data-name="Path 835" d="M70.483,64.72a4.725,4.725,0,1,1,4.709,4.722,4.728,4.728,0,0,1-4.709-4.722m.945,0a3.78,3.78,0,1,0,3.79-3.777,3.783,3.783,0,0,0-3.79,3.777" transform="translate(-67.708 -57.632)"/>
    <path id="Path_836" data-name="Path 836" d="M.746,182.174,0,182.284.885,180l1.534,1.906-.726.117c.1.229.179.455.289.667a6.1,6.1,0,0,0,4.854,3.413,6.331,6.331,0,0,0,.633.037.48.48,0,0,1,.5.484.469.469,0,0,1-.508.46,7,7,0,0,1-6.426-4.193c-.111-.228-.192-.471-.291-.72" transform="translate(0 -172.916)"/>
    <path id="Path_837" data-name="Path 837" d="M185.741,4.917l.753-.112-.884,2.281-1.522-1.9.707-.115c-.059-.151-.107-.294-.171-.431A6.078,6.078,0,0,0,179.785,1a7.2,7.2,0,0,0-.765-.056.482.482,0,0,1-.5-.474A.476.476,0,0,1,179.035,0a7.091,7.091,0,0,1,6.638,4.735c.019.055.041.11.068.182" transform="translate(-171.494 0)"/>
    <path id="Path_838" data-name="Path 838" d="M343.354,204.97a.467.467,0,0,1-.458-.462.483.483,0,1,1,.458.462" transform="translate(-329.396 -195.993)"/>
    <path id="Path_839" data-name="Path 839" d="M31.887,87.642a.474.474,0,1,1-.473.478.474.474,0,0,1,.473-.478" transform="translate(-30.177 -84.191)"/>
    <path id="Path_840" data-name="Path 840" d="M326.76,248.909a.475.475,0,0,1,.485.467.466.466,0,0,1-.473.475.471.471,0,1,1-.012-.942" transform="translate(-313.447 -239.11)"/>
    <path id="Path_841" data-name="Path 841" d="M60.486,49.487a.471.471,0,0,1-.014.943.471.471,0,1,1,.014-.943" transform="translate(-57.641 -47.538)"/>
    <path id="Path_842" data-name="Path 842" d="M297.652,287.6a.463.463,0,0,1,.46-.474.471.471,0,0,1,.481.472.481.481,0,0,1-.472.471.472.472,0,0,1-.47-.469" transform="translate(-285.933 -275.827)"/>
    <path id="Path_843" data-name="Path 843" d="M15.465,132.718a.461.461,0,0,1-.462.471.47.47,0,0,1-.479-.473.478.478,0,0,1,.473-.468.47.47,0,0,1,.468.469" transform="translate(-13.952 -127.042)"/>
    <path id="Path_844" data-name="Path 844" d="M150.649,113.176c-.046.309-.219.485-.471.49s-.428-.16-.492-.472c-.217,0-.438,0-.658,0a.474.474,0,1,1,0-.944c.443,0,.886,0,1.329,0a.478.478,0,0,0,.52-.48.486.486,0,0,0-.52-.467,3.909,3.909,0,0,1-.79-.059,1.386,1.386,0,0,1-1.045-1.356,1.42,1.42,0,0,1,1.041-1.365l.114-.031c.1-.352.248-.5.5-.494.241.006.4.159.475.472.218,0,.439,0,.66,0a.473.473,0,1,1,0,.944c-.443,0-.886,0-1.329,0a.476.476,0,1,0,0,.945,4.546,4.546,0,0,1,.633.024,1.4,1.4,0,0,1,1.193,1.339,1.419,1.419,0,0,1-1.046,1.419l-.119.034" transform="translate(-142.668 -103.745)"/>
  </g>
</svg>
