<svg xmlns="http://www.w3.org/2000/svg" width="15" height="15" viewBox="0 0 17 16.875">
  <g id="Customer_Details_icon" data-name="Customer Details icon" transform="translate(-5 -4.5)">
    <path id="Path_826" data-name="Path 826" d="M21,28.125V26.25a3.75,3.75,0,0,0-3.75-3.75H9.75A3.75,3.75,0,0,0,6,26.25v1.875" transform="translate(0 -6.75)" fill="none" stroke="#2455cf" stroke-linejoin="round" stroke-width="2"/>
    <g id="Path_827" data-name="Path 827" transform="translate(-2.25)" fill="none" stroke-linecap="round" stroke-linejoin="round">
      <path d="M19.5,8.25A3.75,3.75,0,1,1,15.75,4.5,3.75,3.75,0,0,1,19.5,8.25Z" stroke="none"/>
      <path d="M 15.75 6.5 C 14.78504943847656 6.5 14 7.285050392150879 14 8.25 C 14 9.214950561523438 14.78504943847656 10 15.75 10 C 16.71495056152344 10 17.5 9.214950561523438 17.5 8.25 C 17.5 7.285050392150879 16.71495056152344 6.5 15.75 6.5 M 15.75 4.5 C 17.82106971740723 4.5 19.5 6.178930282592773 19.5 8.25 C 19.5 10.32106971740723 17.82106971740723 12 15.75 12 C 13.67893028259277 12 12 10.32106971740723 12 8.25 C 12 6.178930282592773 13.67893028259277 4.5 15.75 4.5 Z" stroke="none" fill="#2455cf"/>
    </g>
  </g>
</svg>
