<svg xmlns="http://www.w3.org/2000/svg" width="19.175" height="23.6" viewBox="0 0 19.175 23.6">
  <path id="notification_icon_top_navbar" data-name="notification icon top navbar" d="M934.656,40.9c-.827-.957-2.375-2.4-2.375-7.112a7.161,7.161,0,0,0-5.476-7.152v-.961a1.372,1.372,0,1,0-2.737,0v.961a7.161,7.161,0,0,0-5.476,7.152c0,4.715-1.547,6.155-2.375,7.112a1.5,1.5,0,0,0-.367,1,1.427,1.427,0,0,0,1.373,1.475h16.427a1.429,1.429,0,0,0,1.374-1.475A1.51,1.51,0,0,0,934.656,40.9Zm-15.917.263c.908-1.289,1.9-3.426,1.907-7.348,0-.009,0-.017,0-.027a4.807,4.807,0,1,1,9.588,0c0,.009,0,.018,0,.027,0,3.923,1,6.06,1.905,7.348Zm6.7,6.638a2.851,2.851,0,0,0,2.738-2.95H922.7A2.85,2.85,0,0,0,925.438,47.8Z" transform="translate(-915.85 -24.2)"/>
</svg>
