<svg id="profile_icon" data-name="profile icon" xmlns="http://www.w3.org/2000/svg" width="40" height="40" viewBox="0 0 40 40">
  <path id="Path_157" data-name="Path 157" d="M20,40A20,20,0,1,0,0,20,20.039,20.039,0,0,0,20,40Z" fill="#304ffd"/>
  <path id="Path_158" data-name="Path 158" d="M77.539,24.645,73.77,45.106l2.692.538C82.161,41.472,84.606,24.645,77.539,24.645Z" transform="translate(-52.693 -17.603)" fill="#4e1e30"/>
  <path id="Path_159" data-name="Path 159" d="M48.792,22.041c-.942-.572-5.916-2.025-9.692,0-4.644,2.49-8.705,11.4-2.154,20.462.009.013,4.846-.538,4.846-.538Z" transform="translate(-23.945 -15)" fill="#4e1e30"/>
  <path id="Path_160" data-name="Path 160" d="M62.729,98.739a20.019,20.019,0,0,1-9.692,0V87.7c1.072-.809,1.077-2.147,1.077-3.378V83.068h7.538v1.258h.029c0,1.22,0,2.547,1.048,3.358Z" transform="translate(-37.884 -59.335)" fill="#ffd7a3" fill-rule="evenodd"/>
  <path id="Path_161" data-name="Path 161" d="M66.23,125.2a20.067,20.067,0,0,1-7.538.207v-5.117a12.359,12.359,0,0,0,3.231.42,11.736,11.736,0,0,0,4.308-.775Z" transform="translate(-41.922 -85.665)" fill="#0090ff" fill-rule="evenodd"/>
  <path id="Path_162" data-name="Path 162" d="M64.884,89.99a2.943,2.943,0,0,0,.538.1v-2.48c-1.044-.811-1.048-2.138-1.048-3.358V82.958l-5.952.031-1.615.538C57.884,84.74,61.182,88.98,64.884,89.99Z" transform="translate(-40.576 -59.256)" fill="#fdc88e"/>
  <path id="Path_163" data-name="Path 163" d="M58.692,43.76c0,4.312-4.289,9.692-7.538,9.692s-7.538-5.38-7.538-9.692,3.375-5.923,7.538-5.923S58.692,39.447,58.692,43.76Z" transform="translate(-31.154 -27.026)" fill="#ffe1b2"/>
  <path id="Path_164" data-name="Path 164" d="M48.061,28.414a11.046,11.046,0,0,0-2.088.638l-.066-.1-.3.238c-.447.17-.774.3-.774.3l.126.21c-2.044,1.61-6.707,5.294-7.126,5.713-.538.538,3.231,14.276,3.231,6.462,0-6.529,3.627-7.822,7-8.615a2.534,2.534,0,0,0,2.154-2.154C50.394,30.209,48.6,28.414,48.061,28.414Z" transform="translate(-26.984 -20.296)" fill="#4e1e30"/>
  <path id="Path_165" data-name="Path 165" d="M76.731,28.952c.987,3.545,2.962,5.149,4.813,5.62,1.014.258.572-2.928.572-2.928s-1.436-3.68-1.615-3.769a36.112,36.112,0,0,1-1.615-3.231l-3.231,2.692Z" transform="translate(-54.039 -17.603)" fill="#4e1e30"/>
  <path id="Path_166" data-name="Path 166" d="M33.668,109.256l-2.81-12.225c-.5.819-1.532,1.4-3.643,1.4h-.179a5.924,5.924,0,0,0-5.878,5.186A19.945,19.945,0,0,0,33.668,109.256Z" transform="translate(-15.113 -69.308)" fill="#ff965d" fill-rule="evenodd"/>
  <path id="Path_167" data-name="Path 167" d="M87.568,103.613a5.924,5.924,0,0,0-5.878-5.186h-.179c-2.11,0-3.138-.576-3.643-1.4l-2.81,12.225A19.946,19.946,0,0,0,87.568,103.613Z" transform="translate(-53.613 -69.308)" fill="#ff965d" fill-rule="evenodd"/>
  <path id="Path_168" data-name="Path 168" d="M90.2,58.617c.881-.2,1.458.23,1.458,1.077,0,1.122-1.185,3.87-2.43,2.154S90.2,58.617,90.2,58.617Z" transform="translate(-63.461 -41.834)" fill="#ffe1b2"/>
</svg>
