<svg id="Reports_icon" data-name="Reports icon" xmlns="http://www.w3.org/2000/svg" xmlns:xlink="http://www.w3.org/1999/xlink" width="15" height="15" viewBox="0 0 15 21.12">
  <defs>
    <clipPath id="clip-path">
      <rect id="Rectangle_605" data-name="Rectangle 605" width="15" height="21.12"/>
    </clipPath>
  </defs>
  <g id="Group_590" data-name="Group 590" clip-path="url(#clip-path)">
    <path id="Path_849" data-name="Path 849" d="M13.77,21.12H1.229A1.524,1.524,0,0,1,0,19.358Q0,11.275,0,3.193c0-.089,0-.179,0-.268A1.441,1.441,0,0,1,1.154,1.548a3.137,3.137,0,0,1,.6-.03c.459,0,.917,0,1.405,0,0-.253.014-.486,0-.716A.721.721,0,0,1,3.622,0h.289A.714.714,0,0,1,4.4.788c-.013.236,0,.474,0,.712H6.88c0-.241.016-.468,0-.692A.739.739,0,0,1,7.335,0h.33a.749.749,0,0,1,.459.83c-.02.221,0,.446,0,.671H10.6c0-.248.011-.481,0-.713A.714.714,0,0,1,11.089,0h.289a.721.721,0,0,1,.471.8c-.016.23,0,.463,0,.716h.25c.467,0,.935-.007,1.4,0a1.816,1.816,0,0,1,.525.08A1.452,1.452,0,0,1,15,3.09q0,8.227,0,16.453c0,.055,0,.11,0,.165a1.451,1.451,0,0,1-1.133,1.374.76.76,0,0,0-.094.038M3.154,2.756H1.62c-.341,0-.376.035-.376.379q0,8.177,0,16.355c0,.352.038.389.389.389H13.369c.055,0,.124.02.162-.005a.74.74,0,0,0,.215-.2c.032-.049.009-.134.009-.2q0-8.146,0-16.293c0-.048,0-.1,0-.144,0-.186-.082-.277-.275-.275-.5,0-1,0-1.506,0a.986.986,0,0,0-.132.02c0,.307.01.6,0,.9a.6.6,0,0,1-.681.583A.623.623,0,0,1,10.6,3.6c0-.278,0-.557,0-.833H8.12c0,.284,0,.557,0,.83a.621.621,0,1,1-1.239,0c0-.273,0-.546,0-.825H4.4c0,.28,0,.546,0,.813a.626.626,0,0,1-.62.678.618.618,0,0,1-.621-.672c0-.267,0-.534,0-.832" transform="translate(0)"/>
    <path id="Path_850" data-name="Path 850" d="M61.76,137.221h3.629a.623.623,0,1,1,0,1.238H58.066a.623.623,0,0,1-.665-.519.606.606,0,0,1,.425-.689,1,1,0,0,1,.284-.029q1.825,0,3.649,0" transform="translate(-54.238 -129.674)"/>
    <path id="Path_851" data-name="Path 851" d="M61.746,274.3q-1.845,0-3.69,0a.611.611,0,0,1-.651-.555.62.62,0,0,1,.547-.68,1.084,1.084,0,0,1,.144-.005h7.3a.626.626,0,0,1,.694.581.61.61,0,0,1-.651.659c-1,0-2.007,0-3.01,0h-.68" transform="translate(-54.245 -258.038)"/>
    <path id="Path_852" data-name="Path 852" d="M61.736,205.141q1.824,0,3.649,0a.621.621,0,0,1,.694.577.606.606,0,0,1-.509.648,1.622,1.622,0,0,1-.287.018H58.192a1.638,1.638,0,0,1-.287-.018.607.607,0,0,1-.511-.647.6.6,0,0,1,.57-.572c.288-.015.577-.007.866-.007h2.907" transform="translate(-54.237 -193.856)"/>
  </g>
</svg>
